<svg xmlns="http://www.w3.org/2000/svg" viewBox="0 0 42 35"><title>core-blocks</title><path d="M41.47,12.64l0-.06a.31.31,0,0,0-.06-.13l0-.06-.1-.11-.05,0,0,0L41,12.13h0L30.31,8V7.36a2.63,2.63,0,0,0,0-.49A2.23,2.23,0,0,0,29.84,6a3.14,3.14,0,0,0-.34-.4C28,4.06,24.45,3.26,21.09,3.26h0c-3.91,0-8,1.1-9,3.16a2.12,2.12,0,0,0-.21.94v.48L1,11.93H1L.84,12l0,0-.06.05-.1.1a.21.21,0,0,1,0,.06l-.06.13,0,.07a.69.69,0,0,0,0,.2h0V23.38a.79.79,0,0,0,.5.73l19.82,7.58h0a.83.83,0,0,0,.51,0h0L41,24.3a.79.79,0,0,0,.51-.73V12.86A.78.78,0,0,0,41.47,12.64Zm-28-5.48c.35-1,3.24-2.34,7.62-2.34,3.8,0,6.48,1,7.35,1.92a.9.9,0,0,1,.31.62c0,1-3,2.53-7.66,2.53s-7.65-1.5-7.65-2.53A.69.69,0,0,1,13.47,7.16ZM28.75,9.71v2.67c0,1-3,2.54-7.65,2.54V11.46C24,11.46,27,10.85,28.75,9.71Zm-7.65,9.7L3.48,12.67l8.39-3.16v2.87c0,2.66,4.75,4.1,9.22,4.1s9.22-1.44,9.22-4.1V9.71l8.21,3.14L33,14.93ZM39.94,23l-18.06,6.8v-9L39.94,14V23Z" style="fill:#f6494d"/></svg>