<svg xmlns="http://www.w3.org/2000/svg" viewBox="0 0 68 38"><title>modules</title><path d="M66.47,18.89l0-.06a.31.31,0,0,0-.06-.13l0-.06-.1-.11,0-.05,0,0L66,18.38h0L55.36,14.3v-.67a2,2,0,0,0-.06-.49,2.43,2.43,0,0,0-.41-.88c-.1-.13-.22-.26-.34-.39-1.54-1.52-5-2.33-8.38-2.33h0a20.14,20.14,0,0,0-3.83.37V9.64a.76.76,0,0,0,0-.21.14.14,0,0,0,0-.06.91.91,0,0,0-.07-.14.21.21,0,0,0,0-.06l-.1-.1s0,0,0-.05l0,0-.16-.08h0L31.2,4.84V4.16a2.61,2.61,0,0,0-.05-.48,2.55,2.55,0,0,0-.42-.88,3.06,3.06,0,0,0-.34-.39C28.85.88,25.36.08,22,.08h0c-3.9,0-8,1.1-9,3.15a2.26,2.26,0,0,0-.21.93v.48L2,8.72H2a.53.53,0,0,0-.15.08l0,0-.06.05a.94.94,0,0,0-.1.1l0,.06-.06.13,0,.07a.64.64,0,0,0,0,.2h0V20.12a.77.77,0,0,0,.5.73l19.74,7.56h0a.75.75,0,0,0,.26.05.74.74,0,0,0,.25-.05h0l3.37-1.27v2.45a.75.75,0,0,0,.5.72l19.73,7.56h0a.74.74,0,0,0,.25.05.8.8,0,0,0,.26-.05h0L66,30.5a.77.77,0,0,0,.5-.72V19.1A.76.76,0,0,0,66.47,18.89ZM46.17,11.1c3.78,0,6.46,1,7.32,1.91a.94.94,0,0,1,.31.62c0,1-3,2.52-7.63,2.52a18.59,18.59,0,0,1-3.83-.39,12.2,12.2,0,0,1-1.55-.43c-1.43-.51-2.25-1.17-2.25-1.7a.71.71,0,0,1,0-.2c.17-.5,1-1.06,2.21-1.51a10.74,10.74,0,0,1,1.55-.43A17.86,17.86,0,0,1,46.17,11.1ZM53.8,16v2.66c0,1-3,2.53-7.63,2.53V17.71C49.05,17.71,52,17.11,53.8,16ZM14.42,4c.35-1,3.23-2.33,7.6-2.33,3.78,0,6.45,1,7.32,1.91a.92.92,0,0,1,.3.61c0,1-3,2.53-7.62,2.53s-7.63-1.5-7.63-2.53A.63.63,0,0,1,14.42,4ZM29.64,6.5V9.17c0,1-3,2.53-7.62,2.53V8.25C24.9,8.25,27.89,7.64,29.64,6.5ZM22,16.18,4.47,9.46l8.36-3.15V9.17c0,2.65,4.73,4.08,9.19,4.08s9.18-1.43,9.18-4.08V6.51l8.17,3.13-5.51,2.07Zm.77,10.37v-9l15-5.65a3,3,0,0,0-.58.79,2.15,2.15,0,0,0-.21.94v.48L26.16,18.19h0l-.15.07s0,0,0,0l0,.05a.94.94,0,0,0-.1.1.16.16,0,0,0,0,.07.54.54,0,0,0-.07.13s0,0,0,.06a.69.69,0,0,0,0,.2h0v6.57Zm23.38-.91L38,22.5l-2.19-.84-7.15-2.74L37,15.77v2.86a2.7,2.7,0,0,0,1.22,2.12,7.67,7.67,0,0,0,1.83,1,18.16,18.16,0,0,0,6.13,1c4.45,0,9.19-1.43,9.19-4.09V16l8.17,3.13L58,21.17Zm18.77,3.6h0L47,36V27l18-6.78Z" style="fill:#f6494d"/></svg>