<svg xmlns="http://www.w3.org/2000/svg" viewBox="0 0 68 38"><title>pages</title><path d="M67,21.84a.72.72,0,0,0-.45-.66l-4.44-1.7,4.43-1.69a.71.71,0,0,0,.46-.68.7.7,0,0,0-.48-.65c-.24-.08-24-8.1-31.24-12C33.92,3.76,30.15.86,30.11.83a.54.54,0,0,0-.18-.1,3.53,3.53,0,0,0-2.5,0l-.14.08c-.05,0-4.44,3-6,3.78C16.64,6.94,1.63,12.13,1.48,12.18a.72.72,0,0,0-.48.66.71.71,0,0,0,.45.67l4.43,1.7-4.43,1.7a.7.7,0,0,0-.45.66.72.72,0,0,0,.45.66l4.43,1.7L1.45,21.62a.71.71,0,0,0,0,1.32L39.28,37.45a.7.7,0,0,0,.25,0,.74.74,0,0,0,.25,0L66.54,27.22a.71.71,0,0,0,.46-.66.7.7,0,0,0-.45-.66l-4.43-1.7,4.42-1.69A.71.71,0,0,0,67,21.84Zm-45-16h0C23.48,5.1,27.41,2.44,28,2a2.09,2.09,0,0,1,1.33,0c.6.46,3.86,2.94,5.23,3.69-.75,0-1.25,0-1.26,0h-5V6.94h5a24.79,24.79,0,0,1,5.28.66C46.4,11,59.37,15.51,64.21,17.17L39.53,26.6,3.77,12.88C8,11.41,18.13,7.77,22,5.86Zm42.36,20.7L39.53,36,3.69,22.28l4.17-1.59L39.28,32.74a.69.69,0,0,0,.25,0,.73.73,0,0,0,.25,0L60.14,25ZM39.53,31.32,3.69,17.57,7.86,16,39.28,28a.7.7,0,0,0,.25.05.74.74,0,0,0,.25-.05l20.35-7.78,4.18,1.6Z" style="fill:#f6494d"/></svg>