<svg xmlns="http://www.w3.org/2000/svg" viewBox="0 0 360 164"><title>structure</title><path d="M46.31,17a.14.14,0,0,0,0-.06.91.91,0,0,0-.07-.14.21.21,0,0,0,0-.06l-.1-.11,0,0,0,0a1.29,1.29,0,0,0-.16-.09h0L35.06,12.36v-.68a2.63,2.63,0,0,0-.05-.49,2.59,2.59,0,0,0-.42-.89,3.23,3.23,0,0,0-.35-.4c-1.55-1.54-5.09-2.36-8.48-2.36h0c-3.94,0-8.1,1.11-9.08,3.19a2.2,2.2,0,0,0-.21.95v.49L5.5,16.3h0l-.15.07s0,0,0,0l0,.05a.52.52,0,0,0-.1.11l0,.06-.06.13a.14.14,0,0,0,0,.07A.65.65,0,0,0,5,17H5V27.84a.78.78,0,0,0,.51.73l20,7.65h0a.74.74,0,0,0,.25.05.75.75,0,0,0,.26-.05h0l19.8-7.46a.8.8,0,0,0,.51-.74V17.23A.78.78,0,0,0,46.31,17ZM18.08,11.48c.34-1,3.26-2.36,7.68-2.36,3.83,0,6.54,1,7.42,1.94a.94.94,0,0,1,.31.62c0,1-3,2.56-7.73,2.56S18,12.72,18,11.68A.48.48,0,0,1,18.08,11.48Zm15.41,2.57v2.7c0,1-3,2.56-7.72,2.56v-3.5C28.68,15.81,31.71,15.2,33.49,14.05Zm-7.72,9.79L8,17l8.46-3.19v2.9c0,2.68,4.8,4.13,9.3,4.13s9.3-1.45,9.3-4.13v-2.7l8.28,3.17-5.58,2.1Zm19,3.65L26.55,34.35V25.23l18.22-6.87v9.13Z" style="fill:#f6494d"/><path d="M167.91,72.55a.14.14,0,0,1,0-.06.54.54,0,0,0-.07-.13l0-.06-.1-.11-.06,0,0,0a.8.8,0,0,0-.16-.08h0l-10.78-4.12v-.69a2.05,2.05,0,0,0-.06-.49,2.47,2.47,0,0,0-.41-.89c-.11-.13-.22-.27-.35-.4-1.56-1.54-5.1-2.35-8.48-2.35h0a20.48,20.48,0,0,0-3.87.37v-.27a1.43,1.43,0,0,0,0-.22.14.14,0,0,0,0-.06.54.54,0,0,0-.07-.13.16.16,0,0,0,0-.07l-.1-.1s0,0-.05,0l0,0-.16-.08h0L132.2,58.33v-.69a2.63,2.63,0,0,0,0-.49,2.68,2.68,0,0,0-.42-.89,4.17,4.17,0,0,0-.35-.4c-1.56-1.54-5.1-2.35-8.48-2.35h0c-3.94,0-8.1,1.11-9.08,3.18a2.24,2.24,0,0,0-.22,1v.49l-11,4.13h0a.55.55,0,0,0-.15.08s0,0,0,0l0,0-.1.11,0,.06-.06.13,0,.07a1.33,1.33,0,0,0,0,.21h0V73.8a.79.79,0,0,0,.51.74l20,7.65h0a.85.85,0,0,0,.26,0,.75.75,0,0,0,.26,0h0l3.41-1.29v2.48a.79.79,0,0,0,.5.74l20,7.65h0a.7.7,0,0,0,.52,0h0l19.79-7.46a.78.78,0,0,0,.51-.74V72.77A.83.83,0,0,0,167.91,72.55Zm-20.55-7.89c3.83,0,6.53,1,7.41,1.94a.92.92,0,0,1,.31.62c0,1-3,2.56-7.72,2.56a18.13,18.13,0,0,1-3.87-.4,12.27,12.27,0,0,1-1.58-.43c-1.44-.52-2.27-1.18-2.27-1.73a.75.75,0,0,1,0-.2c.17-.5,1-1.07,2.24-1.53a12.27,12.27,0,0,1,1.58-.43A18.13,18.13,0,0,1,147.36,64.66Zm7.72,4.93v2.7c0,1-3,2.56-7.72,2.56V71.36C150.28,71.36,153.3,70.75,155.08,69.59ZM115.22,57.44c.34-1,3.26-2.36,7.68-2.36,3.83,0,6.54,1,7.42,1.94a1,1,0,0,1,.31.62c0,1-3,2.56-7.73,2.56s-7.72-1.52-7.72-2.56A.51.51,0,0,1,115.22,57.44ZM130.63,60v2.7c0,1-3,2.56-7.73,2.56V61.78C125.82,61.78,128.85,61.17,130.63,60ZM122.9,69.8,105.14,63l8.46-3.19v2.9c0,2.69,4.79,4.14,9.3,4.14s9.3-1.45,9.3-4.14V60l8.28,3.17-5.58,2.1Zm.79,10.51V71.19l15.18-5.72a2.9,2.9,0,0,0-.59.8,2.24,2.24,0,0,0-.22,1v.49l-11,4.13h0l-.15.08,0,0-.06,0-.1.11,0,.06a.38.38,0,0,0-.06.13l0,.07a.76.76,0,0,0,0,.21h0v6.64Zm23.67-.93-8.3-3.17-2.22-.85-7.25-2.78,8.47-3.19v2.9a2.72,2.72,0,0,0,1.24,2.14,7.74,7.74,0,0,0,1.86,1,18.24,18.24,0,0,0,6.2,1c4.51,0,9.3-1.45,9.3-4.14V69.6l8.27,3.16-5.58,2.11Zm19,3.65h0l-18.22,6.86V80.77l18.22-6.86Z" style="fill:#f6494d"/><path d="M109.38,89.43C29.59,96.32,26.55,42,26.55,42" style="fill:none;stroke:#f6494d;stroke-miterlimit:10;stroke-width:1.42999959534795px"/><polygon points="104.22 83.92 103.32 85.03 108.83 89.44 104.03 94.61 105.08 95.58 110.92 89.29 104.22 83.92" style="fill:#f6494d"/><path d="M147.26,96.84s3,54.33,82.83,47.44" style="fill:none;stroke:#f6494d;stroke-miterlimit:10;stroke-width:1.42999959534795px"/><polygon points="225.79 150.44 224.74 149.46 229.54 144.3 224.04 139.89 224.93 138.77 231.63 144.14 225.79 150.44" style="fill:#f6494d"/><path d="M290.91,131.22a.73.73,0,0,0-.46-.67L286,128.83l4.47-1.7a.73.73,0,0,0,.46-.69.72.72,0,0,0-.49-.66c-.24-.08-24.2-8.17-31.54-12.09-1.36-.73-5.17-3.66-5.21-3.69a.69.69,0,0,0-.19-.1,3.53,3.53,0,0,0-2.52,0l-.14.08s-4.48,3-6,3.82c-4.71,2.36-19.87,7.6-20,7.65a.72.72,0,0,0-.48.67.71.71,0,0,0,.46.68l4.47,1.71-4.47,1.71a.72.72,0,0,0,0,1.34l4.47,1.71L224.74,131a.71.71,0,0,0-.46.67.72.72,0,0,0,.46.67L262.92,147a.74.74,0,0,0,.25.05.75.75,0,0,0,.26-.05l27-10.33a.71.71,0,0,0,0-1.33L286,133.59l4.47-1.7A.74.74,0,0,0,290.91,131.22Zm-45.48-16.14c1.54-.77,5.51-3.45,6.12-3.86a2.12,2.12,0,0,1,1.34,0,63.47,63.47,0,0,0,5.28,3.71c-.75,0-1.26,0-1.28,0h-5v1.3h5a24.84,24.84,0,0,1,5.34.67c7.88,3.42,21,8,25.86,9.66L263.18,136l-36.11-13.85C231.31,120.68,241.58,117,245.43,115.08ZM288.19,136l-25,9.57L227,131.66l4.21-1.61,31.72,12.16a.56.56,0,0,0,.25,0,.58.58,0,0,0,.26,0L284,134.36Zm-25,4.81L227,126.9l4.22-1.61,31.71,12.16a.74.74,0,0,0,.25.05.75.75,0,0,0,.26-.05L284,129.6l4.21,1.62Z" style="fill:#f6494d"/><path d="M56.75,22.53v-.09a3.85,3.85,0,0,1,4-4c2.05,0,3.47.95,3.66,3H62.09a1.22,1.22,0,0,0-1.32-1.24c-1,0-1.65.79-1.65,2.22v.09c0,1.42.61,2.22,1.69,2.22a1.35,1.35,0,0,0,1.46-1.29h2.24c-.15,2-1.62,3.09-3.66,3.09C58.1,26.54,56.75,24.94,56.75,22.53Z" style="fill:#f6494d"/><path d="M66,22.53v-.09a3.94,3.94,0,0,1,4.16-4,3.85,3.85,0,0,1,4.17,3.94v.09a3.91,3.91,0,0,1-4.2,4.07A3.84,3.84,0,0,1,66,22.53Zm6,0v-.09c0-1.4-.71-2.22-1.82-2.22s-1.8.8-1.8,2.23v.09c0,1.43.72,2.25,1.81,2.25S72,23.91,72,22.51Z" style="fill:#f6494d"/><path d="M76.3,18.54h3.08c2.06,0,3.2.84,3.2,2.5v.05a2,2,0,0,1-1.42,2.06L83,26.41H80.67l-1.6-2.82h-.52v2.82H76.3Zm3,3.59c.76,0,1.13-.32,1.13-1v0c0-.64-.39-.89-1.12-.89h-.73v1.89Z" style="fill:#f6494d"/><path d="M84.77,18.54H90.2v1.74H87v1.36h2.54v1.6H87v1.43h3.37v1.74H84.77Z" style="fill:#f6494d"/><path d="M95.32,18.54h3.51c1.86,0,2.65.84,2.65,2.06v0a1.61,1.61,0,0,1-1.33,1.69,1.71,1.71,0,0,1,1.57,1.84v0c0,1.41-.91,2.19-2.86,2.19H95.32Zm3.06,3.13c.7,0,1-.24,1-.8v-.05c0-.54-.28-.78-1-.78h-.86v1.63Zm.07,3.23c.72,0,1-.33,1-.91v0c0-.6-.32-.91-1.11-.91h-.87V24.9Z" style="fill:#f6494d"/><path d="M103.73,18.54H106v6.12h3v1.75h-5.23Z" style="fill:#f6494d"/><path d="M110.29,22.53v-.09a3.93,3.93,0,0,1,4.16-4,3.85,3.85,0,0,1,4.17,3.94v.09a3.91,3.91,0,0,1-4.21,4.07A3.83,3.83,0,0,1,110.29,22.53Zm6,0v-.09c0-1.4-.7-2.22-1.81-2.22s-1.81.8-1.81,2.23v.09c0,1.43.73,2.25,1.82,2.25S116.26,23.91,116.26,22.51Z" style="fill:#f6494d"/><path d="M120.2,22.53v-.09a3.85,3.85,0,0,1,4-4c2.05,0,3.47.95,3.66,3h-2.32a1.23,1.23,0,0,0-1.32-1.24c-1,0-1.65.79-1.65,2.22v.09c0,1.42.6,2.22,1.68,2.22a1.35,1.35,0,0,0,1.46-1.29H128c-.16,2-1.63,3.09-3.67,3.09C121.55,26.54,120.2,24.94,120.2,22.53Z" style="fill:#f6494d"/><path d="M129.88,18.54h2.26v3.12l2.37-3.12h2.35L134,22.2l3,4.21h-2.61l-2.27-3.29v3.29h-2.26Z" style="fill:#f6494d"/><path d="M137.91,23.91h2.14c.06.56.31,1,1.24,1,.65,0,1-.32,1-.78s-.3-.62-1.25-.76c-2.22-.27-3-.93-3-2.51,0-1.42,1.17-2.45,3-2.45s3,.79,3.1,2.45h-2.09a.89.89,0,0,0-1-.85c-.61,0-.91.28-.91.67s.24.64,1.22.77c2,.22,3,.74,3,2.44,0,1.45-1.14,2.62-3.17,2.62C139.09,26.54,138,25.62,137.91,23.91Z" style="fill:#f6494d"/><path d="M178.28,69.3h2.93l1.51,4.19,1.51-4.19h2.88v7.86h-2.24V72.27l-1.93,4.89h-.75l-1.9-4.89v4.89h-2Z" style="fill:#f6494d"/><path d="M189.11,73.28v-.09a3.93,3.93,0,0,1,4.16-4,3.86,3.86,0,0,1,4.17,4v.09a3.91,3.91,0,0,1-4.2,4.07A3.84,3.84,0,0,1,189.11,73.28Zm6,0v-.09c0-1.4-.7-2.22-1.81-2.22s-1.81.8-1.81,2.23v.09c0,1.43.73,2.25,1.82,2.25S195.08,74.67,195.08,73.26Z" style="fill:#f6494d"/><path d="M199.43,69.3h2.86c2.79,0,4.21,1.4,4.21,3.84v.09c0,2.45-1.45,3.93-4.22,3.93h-2.85Zm2.78,6.13c1.34,0,1.94-.71,1.94-2.17v-.09c0-1.5-.6-2.13-2-2.13h-.5v4.39Z" style="fill:#f6494d"/><path d="M208.4,74V69.3h2.25v4.57c0,1.12.28,1.65,1.23,1.65s1.24-.5,1.24-1.68V69.3h2.27v4.64c0,2.29-1.34,3.36-3.51,3.36S208.4,76.17,208.4,74Z" style="fill:#f6494d"/><path d="M217.73,69.3H220v6.12h3v1.74h-5.24Z" style="fill:#f6494d"/><path d="M224.71,69.3h5.43V71H227v1.35h2.55V74H227v1.43h3.37v1.73h-5.61Z" style="fill:#f6494d"/><path d="M231.83,74.67H234c.05.56.3,1,1.24,1,.65,0,1-.32,1-.78s-.3-.62-1.24-.76c-2.22-.26-3-.92-3-2.51,0-1.42,1.16-2.45,3-2.45s3,.79,3.11,2.45h-2.09a.9.9,0,0,0-1-.85c-.6,0-.91.28-.91.68s.24.63,1.22.77c2,.22,3,.73,3,2.44,0,1.44-1.15,2.62-3.17,2.62C233,77.3,231.9,76.37,231.83,74.67Z" style="fill:#f6494d"/><path d="M302.69,125h3c2.15,0,3.15,1,3.15,2.63v0c0,1.65-1.11,2.55-3.06,2.55h-.84v2.65h-2.25Zm2.9,3.68c.72,0,1.11-.35,1.11-1v0c0-.67-.4-1-1.1-1h-.66v2Z" style="fill:#f6494d"/><path d="M312.09,125H315l2.5,7.87h-2.39l-.42-1.47h-2.61l-.42,1.47h-2.1Zm.44,4.85h1.73l-.86-3Z" style="fill:#f6494d"/><path d="M318.55,129v-.08a3.92,3.92,0,0,1,4.13-4c1.86,0,3.51.85,3.66,2.89h-2.23a1.25,1.25,0,0,0-1.42-1.12c-1.11,0-1.78.86-1.78,2.28V129c0,1.27.47,2.26,1.84,2.26,1.1,0,1.51-.56,1.56-1.19h-1.48V128.5h3.7v1c0,2-1.31,3.51-3.85,3.51A3.78,3.78,0,0,1,318.55,129Z" style="fill:#f6494d"/><path d="M328.54,125H334v1.74h-3.19v1.35h2.54v1.61h-2.54v1.43h3.37v1.74h-5.61Z" style="fill:#f6494d"/><path d="M335.66,130.35h2.14c.06.56.31,1,1.25,1,.65,0,1-.32,1-.78s-.3-.61-1.24-.76c-2.23-.26-3-.92-3-2.51,0-1.42,1.16-2.45,3-2.45s3,.79,3.11,2.45h-2.09a.9.9,0,0,0-1-.84c-.6,0-.91.27-.91.67s.24.64,1.22.77c2,.22,3,.74,3,2.44,0,1.44-1.15,2.62-3.17,2.62C336.85,133,335.72,132.05,335.66,130.35Z" style="fill:#f6494d"/><path d="M26.55,42S39,174.6,229.61,144.32" style="fill:none;stroke:#f6494d;stroke-miterlimit:10;stroke-width:1.42999959534795px"/></svg>