<svg xmlns="http://www.w3.org/2000/svg" viewBox="0 0 360 164"><title>structure</title><path d="M46.31,17a.14.14,0,0,0,0-.06.91.91,0,0,0-.07-.14.21.21,0,0,0,0-.06l-.1-.11,0,0,0,0a1.29,1.29,0,0,0-.16-.09h0L35.06,12.36v-.68a2.63,2.63,0,0,0-.05-.49,2.59,2.59,0,0,0-.42-.89,3.23,3.23,0,0,0-.35-.4c-1.55-1.54-5.09-2.36-8.48-2.36h0c-3.94,0-8.1,1.11-9.08,3.19a2.2,2.2,0,0,0-.21.95v.49L5.5,16.3h0l-.15.07s0,0,0,0l0,.05a.52.52,0,0,0-.1.11l0,.06-.06.13a.14.14,0,0,0,0,.07A.65.65,0,0,0,5,17H5V27.84a.78.78,0,0,0,.51.73l20,7.65h0a.74.74,0,0,0,.25.05.75.75,0,0,0,.26-.05h0l19.8-7.46a.8.8,0,0,0,.51-.74V17.23A.78.78,0,0,0,46.31,17ZM18.08,11.48c.34-1,3.26-2.36,7.68-2.36,3.83,0,6.54,1,7.42,1.94a.94.94,0,0,1,.31.62c0,1-3,2.56-7.73,2.56S18,12.72,18,11.68A.48.48,0,0,1,18.08,11.48Zm15.41,2.57v2.7c0,1-3,2.56-7.72,2.56v-3.5C28.68,15.81,31.71,15.2,33.49,14.05Zm-7.72,9.79L8,17l8.46-3.19v2.9c0,2.68,4.8,4.13,9.3,4.13s9.3-1.45,9.3-4.13v-2.7l8.28,3.17-5.58,2.1Zm19,3.65L26.55,34.35V25.23l18.22-6.87v9.13Z" style="fill:#f6494d"/><path d="M167.91,72.55a.14.14,0,0,1,0-.06.54.54,0,0,0-.07-.13l0-.06-.1-.11-.06,0,0,0a.8.8,0,0,0-.16-.08h0l-10.78-4.12v-.69a2.05,2.05,0,0,0-.06-.49,2.47,2.47,0,0,0-.41-.89c-.11-.13-.22-.27-.35-.4-1.56-1.54-5.1-2.35-8.48-2.35h0a20.48,20.48,0,0,0-3.87.37v-.27a1.43,1.43,0,0,0,0-.22.14.14,0,0,0,0-.06.54.54,0,0,0-.07-.13.16.16,0,0,0,0-.07l-.1-.1s0,0-.05,0l0,0-.16-.08h0L132.2,58.33v-.69a2.63,2.63,0,0,0,0-.49,2.68,2.68,0,0,0-.42-.89,4.17,4.17,0,0,0-.35-.4c-1.56-1.54-5.1-2.35-8.48-2.35h0c-3.94,0-8.1,1.11-9.08,3.18a2.24,2.24,0,0,0-.22,1v.49l-11,4.13h0a.55.55,0,0,0-.15.08s0,0,0,0l0,0-.1.11,0,.06-.06.13,0,.07a1.33,1.33,0,0,0,0,.21h0V73.8a.79.79,0,0,0,.51.74l20,7.65h0a.85.85,0,0,0,.26,0,.75.75,0,0,0,.26,0h0l3.41-1.29v2.48a.79.79,0,0,0,.5.74l20,7.65h0a.7.7,0,0,0,.52,0h0l19.79-7.46a.78.78,0,0,0,.51-.74V72.77A.83.83,0,0,0,167.91,72.55Zm-20.55-7.89c3.83,0,6.53,1,7.41,1.94a.92.92,0,0,1,.31.62c0,1-3,2.56-7.72,2.56a18.13,18.13,0,0,1-3.87-.4,12.27,12.27,0,0,1-1.58-.43c-1.44-.52-2.27-1.18-2.27-1.73a.75.75,0,0,1,0-.2c.17-.5,1-1.07,2.24-1.53a12.27,12.27,0,0,1,1.58-.43A18.13,18.13,0,0,1,147.36,64.66Zm7.72,4.93v2.7c0,1-3,2.56-7.72,2.56V71.36C150.28,71.36,153.3,70.75,155.08,69.59ZM115.22,57.44c.34-1,3.26-2.36,7.68-2.36,3.83,0,6.54,1,7.42,1.94a1,1,0,0,1,.31.62c0,1-3,2.56-7.73,2.56s-7.72-1.52-7.72-2.56A.51.51,0,0,1,115.22,57.44ZM130.63,60v2.7c0,1-3,2.56-7.73,2.56V61.78C125.82,61.78,128.85,61.17,130.63,60ZM122.9,69.8,105.14,63l8.46-3.19v2.9c0,2.69,4.79,4.14,9.3,4.14s9.3-1.45,9.3-4.14V60l8.28,3.17-5.58,2.1Zm.79,10.51V71.19l15.18-5.72a2.9,2.9,0,0,0-.59.8,2.24,2.24,0,0,0-.22,1v.49l-11,4.13h0l-.15.08,0,0-.06,0-.1.11,0,.06a.38.38,0,0,0-.06.13l0,.07a.76.76,0,0,0,0,.21h0v6.64Zm23.67-.93-8.3-3.17-2.22-.85-7.25-2.78,8.47-3.19v2.9a2.72,2.72,0,0,0,1.24,2.14,7.74,7.74,0,0,0,1.86,1,18.24,18.24,0,0,0,6.2,1c4.51,0,9.3-1.45,9.3-4.14V69.6l8.27,3.16-5.58,2.11Zm19,3.65h0l-18.22,6.86V80.77l18.22-6.86Z" style="fill:#f6494d"/><path d="M109.38,89.43C29.59,96.32,26.55,42,26.55,42" style="fill:none;stroke:#f6494d;stroke-miterlimit:10;stroke-width:1.429999595347951px"/><polygon points="104.22 83.92 103.32 85.03 108.83 89.44 104.03 94.61 105.08 95.58 110.92 89.29 104.22 83.92" style="fill:#f6494d"/><path d="M147.26,96.84s3,54.33,82.83,47.44" style="fill:none;stroke:#f6494d;stroke-miterlimit:10;stroke-width:1.429999595347951px"/><polygon points="225.79 150.44 224.74 149.46 229.54 144.3 224.04 139.89 224.93 138.77 231.63 144.14 225.79 150.44" style="fill:#f6494d"/><path d="M290.91,131.22a.73.73,0,0,0-.46-.67L286,128.83l4.47-1.7a.73.73,0,0,0,.46-.69.72.72,0,0,0-.49-.66c-.24-.08-24.2-8.17-31.54-12.09-1.36-.73-5.17-3.66-5.21-3.69a.69.69,0,0,0-.19-.1,3.53,3.53,0,0,0-2.52,0l-.14.08s-4.48,3-6,3.82c-4.71,2.36-19.87,7.6-20,7.65a.72.72,0,0,0-.48.67.71.71,0,0,0,.46.68l4.47,1.71-4.47,1.71a.72.72,0,0,0,0,1.34l4.47,1.71L224.74,131a.71.71,0,0,0-.46.67.72.72,0,0,0,.46.67L262.92,147a.74.74,0,0,0,.25.05.75.75,0,0,0,.26-.05l27-10.33a.71.71,0,0,0,0-1.33L286,133.59l4.47-1.7A.74.74,0,0,0,290.91,131.22Zm-45.48-16.14c1.54-.77,5.51-3.45,6.12-3.86a2.12,2.12,0,0,1,1.34,0,63.47,63.47,0,0,0,5.28,3.71c-.75,0-1.26,0-1.28,0h-5v1.3h5a24.84,24.84,0,0,1,5.34.67c7.88,3.42,21,8,25.86,9.66L263.18,136l-36.11-13.85C231.31,120.68,241.58,117,245.43,115.08ZM288.19,136l-25,9.57L227,131.66l4.21-1.61,31.72,12.16a.56.56,0,0,0,.25,0,.58.58,0,0,0,.26,0L284,134.36Zm-25,4.81L227,126.9l4.22-1.61,31.71,12.16a.74.74,0,0,0,.25.05.75.75,0,0,0,.26-.05L284,129.6l4.21,1.62Z" style="fill:#f6494d"/><path d="M57,21.36v-.11A5,5,0,0,1,62,16c2.46,0,4.29,1.2,4.54,3.72H64.2a2,2,0,0,0-2.14-1.89c-1.62,0-2.65,1.26-2.65,3.38v.11c0,2.12,1,3.35,2.66,3.35a2.16,2.16,0,0,0,2.35-2h2.27c-.26,2.53-2.07,3.83-4.59,3.83C58.75,26.57,57,24.51,57,21.36Z" style="fill:#f6494d"/><path d="M68.75,21.36v-.11A5,5,0,0,1,74,16.05a5,5,0,0,1,5.27,5.14v.12a5.27,5.27,0,0,1-10.53.05Zm8.11,0v-.12c0-2-1.06-3.34-2.85-3.34s-2.84,1.3-2.84,3.36v.11c0,2.09,1.2,3.37,2.87,3.37S76.86,23.39,76.86,21.34Z" style="fill:#f6494d"/><path d="M82,16.19h3.66c2.42,0,4,1,4,3.1v.06a2.65,2.65,0,0,1-2.1,2.71l2.7,4.35H87.76l-2.45-3.95h-1v3.95H82Zm3.6,4.7c1.16,0,1.75-.48,1.75-1.47v-.06c0-1-.63-1.4-1.75-1.4h-1.3v2.93Z" style="fill:#f6494d"/><path d="M92.58,16.19h6.67V18H94.89v2.39h3.48v1.68H94.89v2.55h4.59v1.8h-6.9Z" style="fill:#f6494d"/><path d="M106.41,16.19h4c2.23,0,3.39.91,3.39,2.66v0a2.1,2.1,0,0,1-1.66,2.19,2.24,2.24,0,0,1,2,2.4v.06c0,1.87-1.23,2.86-3.59,2.86h-4.2Zm3.65,4.2c1.11,0,1.56-.4,1.56-1.31V19c0-.86-.49-1.24-1.58-1.24h-1.37v2.61Zm.2,4.42c1.14,0,1.66-.52,1.66-1.44v-.06c0-.95-.52-1.43-1.78-1.43h-1.47v2.93Z" style="fill:#f6494d"/><path d="M117,16.19h2.32V24.6h4.16v1.81H117Z" style="fill:#f6494d"/><path d="M125.11,21.36v-.11a5.05,5.05,0,0,1,5.27-5.2,5,5,0,0,1,5.26,5.14v.12a5.27,5.27,0,0,1-10.53.05Zm8.11,0v-.12c0-2-1.06-3.34-2.84-3.34s-2.85,1.3-2.85,3.36v.11c0,2.09,1.2,3.37,2.87,3.37S133.22,23.39,133.22,21.34Z" style="fill:#f6494d"/><path d="M137.84,21.36v-.11A5,5,0,0,1,142.92,16c2.46,0,4.29,1.2,4.53,3.72h-2.37a2,2,0,0,0-2.15-1.89c-1.61,0-2.64,1.26-2.64,3.38v.11c0,2.12,1,3.35,2.66,3.35a2.14,2.14,0,0,0,2.34-2h2.28c-.26,2.53-2.08,3.83-4.59,3.83C139.63,26.57,137.84,24.51,137.84,21.36Z" style="fill:#f6494d"/><path d="M150.19,16.19h2.31v4.4l3.58-4.42h2.46l-4,4.85,4.25,5.39H156l-3.53-4.59v4.59h-2.31Z" style="fill:#f6494d"/><path d="M160,23.21h2.22c.1.91.48,1.67,2,1.67,1,0,1.68-.56,1.68-1.36s-.42-1.1-1.93-1.33c-2.61-.34-3.68-1.13-3.68-3.1,0-1.74,1.45-3,3.71-3s3.65,1,3.83,3.05h-2.13a1.48,1.48,0,0,0-1.7-1.35c-1,0-1.53.47-1.53,1.15s.33,1.08,1.9,1.31c2.48.31,3.75,1,3.75,3.1,0,1.81-1.49,3.26-3.9,3.26C161.38,26.57,160.1,25.25,160,23.21Z" style="fill:#f6494d"/><path d="M178.62,66.94h3.06l2.39,6.36,2.35-6.36h3V77.16h-2.31V70l-2.83,7.17h-.75L180.69,70v7.17h-2.07Z" style="fill:#f6494d"/><path d="M192.17,72.12V72a5.05,5.05,0,0,1,5.26-5.2A5,5,0,0,1,202.69,72v.11a5.26,5.26,0,0,1-10.52.06Zm8.11,0V72c0-2-1.06-3.34-2.85-3.34s-2.85,1.3-2.85,3.36v.11c0,2.09,1.21,3.38,2.88,3.38S200.28,74.15,200.28,72.09Z" style="fill:#f6494d"/><path d="M205.43,66.94h3.34c3.59,0,5.36,2,5.36,5v.11c0,3.06-1.78,5.1-5.37,5.1h-3.33Zm3.26,8.42c2.05,0,3-1.16,3-3.27V72c0-2.1-.9-3.23-3.06-3.23h-.92v6.62Z" style="fill:#f6494d"/><path d="M216.76,73.18V66.94h2.33V73c0,1.7.5,2.45,1.9,2.45s2-.66,2-2.53v-6h2.33v6.15c0,2.79-1.56,4.23-4.32,4.23S216.76,75.89,216.76,73.18Z" style="fill:#f6494d"/><path d="M228.47,66.94h2.31v8.41h4.16v1.81h-6.47Z" style="fill:#f6494d"/><path d="M237.33,66.94H244v1.8h-4.36v2.39h3.49v1.69h-3.49v2.54h4.59v1.8h-6.89Z" style="fill:#f6494d"/><path d="M246.21,74h2.21c.1.92.49,1.67,2,1.67,1,0,1.69-.55,1.69-1.35s-.43-1.1-1.93-1.33c-2.62-.35-3.69-1.13-3.69-3.11,0-1.74,1.46-3,3.72-3s3.64,1,3.83,3.06h-2.13a1.48,1.48,0,0,0-1.7-1.36c-1,0-1.53.47-1.53,1.16s.33,1.07,1.9,1.3c2.47.31,3.75,1,3.75,3.1,0,1.82-1.49,3.26-3.91,3.26C247.62,77.32,246.33,76,246.21,74Z" style="fill:#f6494d"/><path d="M303,122.62h3.53c2.48,0,3.9,1.11,3.9,3.26v.06c0,2.16-1.5,3.19-3.83,3.19h-1.3v3.72H303Zm3.47,4.89c1.13,0,1.73-.54,1.73-1.55v-.06c0-1.09-.63-1.52-1.73-1.52h-1.17v3.13Z" style="fill:#f6494d"/><path d="M314.82,122.62h3l3.31,10.23h-2.41l-.7-2.28h-3.71l-.7,2.28h-2.17Zm0,6.31h2.71l-1.35-4.42Z" style="fill:#f6494d"/><path d="M322.65,127.8v-.11a5,5,0,0,1,5.2-5.22c2.27,0,4.3,1,4.55,3.57h-2.3a2,2,0,0,0-2.22-1.74c-1.77,0-2.82,1.33-2.82,3.41v.12c0,2,.85,3.39,2.85,3.39a2.17,2.17,0,0,0,2.46-2.16h-2.3v-1.69h4.59v1.09c0,2.73-1.75,4.54-4.81,4.54A4.85,4.85,0,0,1,322.65,127.8Z" style="fill:#f6494d"/><path d="M335.44,122.62h6.66v1.81h-4.36v2.38h3.49v1.69h-3.49v2.55h4.59v1.8h-6.89Z" style="fill:#f6494d"/><path d="M344.32,129.64h2.21c.1.92.49,1.68,2,1.68,1,0,1.68-.56,1.68-1.36s-.43-1.1-1.93-1.33c-2.61-.34-3.69-1.13-3.69-3.1,0-1.75,1.46-3,3.72-3s3.65,1,3.83,3.06H350a1.48,1.48,0,0,0-1.7-1.36c-1,0-1.53.47-1.53,1.16s.33,1.07,1.9,1.3c2.48.32,3.75,1,3.75,3.1,0,1.82-1.49,3.26-3.9,3.26C345.73,133,344.45,131.69,344.32,129.64Z" style="fill:#f6494d"/><path d="M26.55,42S39,174.6,229.61,144.32" style="fill:none;stroke:#f6494d;stroke-miterlimit:10;stroke-width:1.429999595347951px"/></svg>